# OBJ written from /Users/dequidt/tmp/Cylindre_JD.obj

o Mesh
v -0.02275 0 -0.005
v -0.0216365 -0.00703014 -0.005
v -0.0184051 -0.0133721 -0.005
v -0.0133721 -0.0184051 -0.005
v -0.00703014 -0.0216365 -0.005
v 0 -0.02275 -0.005
v 0.00703014 -0.0216365 -0.005
v 0.0133721 -0.0184051 -0.005
v 0.0184051 -0.0133721 -0.005
v 0.0216365 -0.00703014 -0.005
v 0.02275 0 -0.005
v 0.0216365 0.00703014 -0.005
v 0.0184051 0.0133721 -0.005
v 0.0133721 0.0184051 -0.005
v 0.00703014 0.0216365 -0.005
v 0 0.02275 -0.005
v -0.00703014 0.0216365 -0.005
v -0.0133721 0.0184051 -0.005
v -0.0184051 0.0133721 -0.005
v -0.0216365 0.00703014 -0.005
v -0.02275 0 0.015
v -0.0216365 -0.00703014 0.015
v -0.0184051 -0.0133721 0.015
v -0.0133721 -0.0184051 0.015
v -0.00703014 -0.0216365 0.015
v 0 -0.02275 0.015
v 0.00703014 -0.0216365 0.015
v 0.0133721 -0.0184051 0.015
v 0.0184051 -0.0133721 0.015
v 0.0216365 -0.00703014 0.015
v 0.02275 0 0.015
v 0.0216365 0.00703014 0.015
v 0.0184051 0.0133721 0.015
v 0.0133721 0.0184051 0.015
v 0.00703014 0.0216365 0.015
v 0 0.02275 0.015
v -0.00703014 0.0216365 0.015
v -0.0133721 0.0184051 0.015
v -0.0184051 0.0133721 0.015
v -0.0216365 0.00703014 0.015
vn 0 0 -1
vn -1 0 0
vn -0.951057 -0.309017 0
vn -0.809017 -0.587785 0
vn -0.587785 -0.809017 0
vn -0.309017 -0.951057 0
vn 0 -1 0
vn 0.309017 -0.951057 0
vn 0.587785 -0.809017 0
vn 0.809017 -0.587785 0
vn 0.951057 -0.309017 0
vn 1 0 0
vn 0.951057 0.309017 0
vn 0.809017 0.587785 0
vn 0.587785 0.809017 0
vn 0.309017 0.951057 0
vn 0 1 0
vn -0.309017 0.951057 0
vn -0.587785 0.809017 0
vn -0.809017 0.587785 0
vn -0.951057 0.309017 0
vn 0 0 1
vt 0.996922 0.789109
vt 0.996922 0.710891
vt 0.972752 0.636502
vt 0.926777 0.573223
vt 0.863498 0.527248
vt 0.789109 0.503078
vt 0.710891 0.503078
vt 0.636502 0.527248
vt 0.573223 0.573223
vt 0.527248 0.636502
vt 0.503078 0.710891
vt 0.503078 0.789109
vt 0.527248 0.863498
vt 0.573223 0.926777
vt 0.636502 0.972752
vt 0.710891 0.996922
vt 0.789109 0.996922
vt 0.863498 0.972752
vt 0.926777 0.926777
vt 0.972752 0.863498
vt 0 0.5
vt 0 0
vt 0.05 0
vt 0.05 0.5
vt 0.1 0
vt 0.1 0.5
vt 0.15 0
vt 0.15 0.5
vt 0.2 0
vt 0.2 0.5
vt 0.25 0
vt 0.25 0.5
vt 0.3 0
vt 0.3 0.5
vt 0.35 0
vt 0.35 0.5
vt 0.4 0
vt 0.4 0.5
vt 0.45 0
vt 0.45 0.5
vt 0.5 0
vt 0.5 0.5
vt 0.55 0
vt 0.55 0.5
vt 0.6 0
vt 0.6 0.5
vt 0.65 0
vt 0.65 0.5
vt 0.7 0
vt 0.7 0.5
vt 0.75 0
vt 0.75 0.5
vt 0.8 0
vt 0.8 0.5
vt 0.85 0
vt 0.85 0.5
vt 0.9 0
vt 0.9 0.5
vt 0.95 0
vt 0.95 0.5
vt 1 0
vt 1 0.5
vt 0.496922 0.789109
vt 0.472752 0.863498
vt 0.426777 0.926777
vt 0.363498 0.972752
vt 0.289109 0.996922
vt 0.210891 0.996922
vt 0.136502 0.972752
vt 0.0732233 0.926777
vt 0.0272484 0.863498
vt 0.00307791 0.789109
vt 0.00307792 0.710891
vt 0.0272484 0.636502
vt 0.0732233 0.573223
vt 0.136502 0.527248
vt 0.210891 0.503078
vt 0.289109 0.503078
vt 0.363498 0.527248
vt 0.426777 0.573223
vt 0.472752 0.636502
vt 0.496922 0.710891
mtllib Cylindre_JD.mtl
usemtl Default
g Default
f 1/1/1 20/2/1 19/3/1 18/4/1 17/5/1 16/6/1 15/7/1 14/8/1 13/9/1 12/10/1 11/11/1 10/12/1 9/13/1 8/14/1 7/15/1 6/16/1 5/17/1 4/18/1 3/19/1 2/20/1
f 21/21/2 1/22/2 2/23/3 22/24/3
f 22/24/3 2/23/3 3/25/4 23/26/4
f 23/26/4 3/25/4 4/27/5 24/28/5
f 24/28/5 4/27/5 5/29/6 25/30/6
f 25/30/6 5/29/6 6/31/7 26/32/7
f 26/32/7 6/31/7 7/33/8 27/34/8
f 27/34/8 7/33/8 8/35/9 28/36/9
f 28/36/9 8/35/9 9/37/10 29/38/10
f 29/38/10 9/37/10 10/39/11 30/40/11
f 30/40/11 10/39/11 11/41/12 31/42/12
f 31/42/12 11/41/12 12/43/13 32/44/13
f 32/44/13 12/43/13 13/45/14 33/46/14
f 33/46/14 13/45/14 14/47/15 34/48/15
f 34/48/15 14/47/15 15/49/16 35/50/16
f 35/50/16 15/49/16 16/51/17 36/52/17
f 36/52/17 16/51/17 17/53/18 37/54/18
f 37/54/18 17/53/18 18/55/19 38/56/19
f 38/56/19 18/55/19 19/57/20 39/58/20
f 39/58/20 19/57/20 20/59/21 40/60/21
f 40/60/21 20/59/21 1/61/2 21/62/2
f 21/63/22 22/64/22 23/65/22 24/66/22 25/67/22 26/68/22 27/69/22 28/70/22 29/71/22 30/72/22 31/73/22 32/74/22 33/75/22 34/76/22 35/77/22 36/78/22 37/79/22 38/80/22 39/81/22 40/82/22
