# OBJ written from /Users/dequidt/tmp/MeshToExtrude.obj

o Mesh
v 10.0474 7.63964 0.0399494
v 10.0474 10.0335 0.0399494
v 12.2452 7.63964 0.0399494
v 17.8826 7.63964 0.0399494
v 12.958 10.0335 0.0399494
v 17.1698 10.0335 0.0399494
v 10.4989 5.08274 0.0399494
v 12.4989 5.08274 0.0399494
v 17.6289 5.08274 0.0399494
v 19.629 5.08274 0.0399494
v 17.333 2.38274 0.0399494
v 12.7949 2.38274 0.0399494
v 11.0256 2.38274 0.0399494
v 19.1023 2.38274 0.0399494
v 18.6758 0.0827422 0.0399494
v 17.0934 0.0827422 0.0399494
v 13.0345 0.0827422 0.0399494
v 11.452 0.0827422 0.0399494
v 15.0639 7.63964 0.0399494
v 15.0639 10.0335 0.0399494
v 15.0639 5.08274 0.0399494
v 15.0639 2.38274 0.0399494
v 15.0639 0.0827422 0.0399494
v 32.1942 7.63964 0.0399494
v 37.8316 7.63964 0.0399494
v 32.907 10.0335 0.0399494
v 37.1188 10.0335 0.0399494
v 30.4478 5.08274 0.0399494
v 32.4479 5.08274 0.0399494
v 37.5779 5.08274 0.0399494
v 39.578 5.08274 0.0399494
v 37.2819 2.38274 0.0399494
v 32.7439 2.38274 0.0399494
v 30.9746 2.38274 0.0399494
v 39.0512 2.38274 0.0399494
v 38.6248 0.0827422 0.0399494
v 37.0424 0.0827422 0.0399494
v 32.9835 0.0827422 0.0399494
v 31.401 0.0827422 0.0399494
v 35.0129 7.63964 0.0399494
v 35.0129 10.0335 0.0399494
v 35.0129 5.08274 0.0399494
v 35.0129 2.38274 0.0399494
v 35.0129 0.0827422 0.0399494
v 42.1687 7.63964 0.0399494
v 47.8061 7.63964 0.0399494
v 42.8815 10.0335 0.0399494
v 47.0933 10.0335 0.0399494
v 40.4223 5.08274 0.0399494
v 42.4224 5.08274 0.0399494
v 47.5524 5.08274 0.0399494
v 49.5525 5.08274 0.0399494
v 47.2564 2.38274 0.0399494
v 42.7184 2.38274 0.0399494
v 40.9491 2.38274 0.0399494
v 49.0257 2.38274 0.0399494
v 48.5993 0.0827422 0.0399494
v 47.0168 0.0827422 0.0399494
v 42.958 0.0827422 0.0399494
v 41.3755 0.0827422 0.0399494
v 44.9874 7.63964 0.0399494
v 44.9874 10.0335 0.0399494
v 44.9874 5.08274 0.0399494
v 44.9874 2.38274 0.0399494
v 44.9874 0.0827422 0.0399494
v 52.1992 7.63964 0.0399494
v 57.8366 7.63964 0.0399494
v 52.912 10.0335 0.0399494
v 57.1238 10.0335 0.0399494
v 50.4529 5.08274 0.0399494
v 52.4529 5.08274 0.0399494
v 57.5829 5.08274 0.0399494
v 59.583 5.08274 0.0399494
v 57.287 2.38274 0.0399494
v 52.7489 2.38274 0.0399494
v 50.9796 2.38274 0.0399494
v 59.0563 2.38274 0.0399494
v 58.6299 0.0827422 0.0399494
v 57.0474 0.0827422 0.0399494
v 52.9885 0.0827422 0.0399494
v 51.406 0.0827422 0.0399494
v 55.0179 7.63964 0.0399494
v 55.0179 10.0335 0.0399494
v 55.0179 5.08274 0.0399494
v 55.0179 2.38274 0.0399494
v 55.0179 0.0827422 0.0399494
v 62.1737 7.63964 0.0399494
v 67.8111 7.63964 0.0399494
v 62.8865 10.0335 0.0399494
v 67.0983 10.0335 0.0399494
v 60.4273 5.08274 0.0399494
v 62.4274 5.08274 0.0399494
v 67.5574 5.08274 0.0399494
v 69.5575 5.08274 0.0399494
v 67.2615 2.38274 0.0399494
v 62.7234 2.38274 0.0399494
v 60.9541 2.38274 0.0399494
v 69.0308 2.38274 0.0399494
v 68.6043 0.0827422 0.0399494
v 67.0219 0.0827422 0.0399494
v 62.963 0.0827422 0.0399494
v 61.3805 0.0827422 0.0399494
v 64.9924 7.63964 0.0399494
v 64.9924 10.0335 0.0399494
v 64.9924 5.08274 0.0399494
v 64.9924 2.38274 0.0399494
v 64.9924 0.0827422 0.0399494
v 72.1482 7.63964 0.0399494
v 77.7856 7.63964 0.0399494
v 72.861 10.0335 0.0399494
v 77.0728 10.0335 0.0399494
v 70.4018 5.08274 0.0399494
v 72.4019 5.08274 0.0399494
v 77.5319 5.08274 0.0399494
v 79.532 5.08274 0.0399494
v 77.2359 2.38274 0.0399494
v 72.6979 2.38274 0.0399494
v 70.9286 2.38274 0.0399494
v 79.0052 2.38274 0.0399494
v 78.5788 0.0827422 0.0399494
v 76.9964 0.0827422 0.0399494
v 72.9375 0.0827422 0.0399494
v 71.355 0.0827422 0.0399494
v 74.9669 7.63964 0.0399494
v 74.9669 10.0335 0.0399494
v 74.9669 5.08274 0.0399494
v 74.9669 2.38274 0.0399494
v 74.9669 0.0827422 0.0399494
v 22.1637 7.63964 0.0399494
v 27.801 7.63964 0.0399494
v 22.8765 10.0335 0.0399494
v 27.0883 10.0335 0.0399494
v 20.4173 5.08274 0.0399494
v 22.4174 5.08274 0.0399494
v 27.5474 5.08274 0.0399494
v 29.5474 5.08274 0.0399494
v 27.2514 2.38274 0.0399494
v 22.7133 2.38274 0.0399494
v 20.944 2.38274 0.0399494
v 29.0207 2.38274 0.0399494
v 28.5943 0.0827422 0.0399494
v 27.0118 0.0827422 0.0399494
v 22.9529 0.0827422 0.0399494
v 21.3705 0.0827422 0.0399494
v 24.9824 7.63964 0.0399494
v 24.9824 10.0335 0.0399494
v 24.9824 5.08274 0.0399494
v 24.9824 2.38274 0.0399494
v 24.9824 0.0827422 0.0399494
v 20.0805 7.63964 0.0399494
v 20.0805 10.0335 0.0399494
v 29.9963 7.63964 0.0399494
v 29.9963 10.0335 0.0399494
v 40.0295 7.63964 0.0399494
v 40.0295 10.0335 0.0399494
v 50.004 7.63964 0.0399494
v 50.004 10.0335 0.0399494
v 60.0345 7.63964 0.0399494
v 60.0345 10.0335 0.0399494
v 70.009 7.63964 0.0399494
v 70.009 10.0335 0.0399494
v 8.48154 5.08274 0.0399494
v 8.03005 7.63964 0.0399494
v 8.03005 10.0335 0.0399494
v 9.00828 2.38274 0.0399494
v 9.43469 0.0827422 0.0399494
v 6.82286 2.38274 0.0399494
v 6.29612 5.08274 0.0399494
v 5.84462 7.63964 0.0399494
v 5.84462 10.0335 0.0399494
v 7.24927 0.0827422 0.0399494
v 3.54713 7.63964 0.0399494
v 3.54713 10.0335 0.0399494
v 3.99862 5.08274 0.0399494
v 4.52536 2.38274 0.0399494
v 4.95177 0.0827422 0.0399494
v 2.93446 0.0827422 0.0399494
v 2.50805 2.38274 0.0399494
v 1.98131 5.08274 0.0399494
v 1.52982 7.63964 0.0399494
v 1.52982 10.0335 0.0399494
v 0.120063 0.0827422 0.0399494
v 0.120063 2.38274 0.0399494
v 0.120063 5.08274 0.0399494
v 0.120063 7.63964 0.0399494
v 0.120063 10.0335 0.0399494
v 90.0201 7.63965 0.0399494
v 90.0201 10.0335 0.0399494
v 87.8222 7.63965 0.0399494
v 82.1849 7.63965 0.0399494
v 87.1095 10.0335 0.0399494
v 82.8977 10.0335 0.0399494
v 89.5686 5.08274 0.0399494
v 87.5686 5.08274 0.0399494
v 82.4386 5.08274 0.0399494
v 80.4385 5.08274 0.0399494
v 82.7345 2.38274 0.0399494
v 87.2726 2.38274 0.0399494
v 89.0419 2.38274 0.0399494
v 80.9652 2.38274 0.0399494
v 81.3916 0.0827431 0.0399494
v 82.9741 0.0827431 0.0399494
v 87.033 0.0827431 0.0399494
v 88.6155 0.0827431 0.0399494
v 85.0036 7.63965 0.0399494
v 85.0036 10.0335 0.0399494
v 85.0036 5.08274 0.0399494
v 85.0036 2.38274 0.0399494
v 85.0036 0.0827431 0.0399494
v 91.5859 5.08274 0.0399494
v 92.0374 7.63965 0.0399494
v 92.0374 10.0335 0.0399494
v 91.0592 2.38274 0.0399494
v 90.6328 0.0827431 0.0399494
v 93.2446 2.38274 0.0399494
v 93.7714 5.08274 0.0399494
v 94.2229 7.63965 0.0399494
v 94.2229 10.0335 0.0399494
v 92.8182 0.0827431 0.0399494
v 96.5203 7.63965 0.0399494
v 96.5203 10.0335 0.0399494
v 96.0689 5.08274 0.0399494
v 95.5421 2.38274 0.0399494
v 95.1157 0.0827431 0.0399494
v 97.133 0.0827431 0.0399494
v 97.5594 2.38274 0.0399494
v 98.0862 5.08274 0.0399494
v 98.5377 7.63965 0.0399494
v 98.5377 10.0335 0.0399494
v 99.9474 0.0827431 0.0399494
v 99.9474 2.38274 0.0399494
v 99.9474 5.08274 0.0399494
v 99.9474 7.63965 0.0399494
v 99.9474 10.0335 0.0399494
v 79.987 10.0335 0.0399494
v 79.987 7.63965 0.0399494
vn 0 0 -1
vt 0.833333 0.666667
vt 0.826389 0.666667
vt 0.826389 0.333333
vt 0.833333 0.333333
vt 0 0
vt 1 0
vt 1 1
vt 0 1
vt 0.819444 0.333333
vt 0.822917 0.333333
vt 0.822917 0.666667
vt 0.819444 0.666667
vt 0 0.5
vt 1 0.5
vt 0.8125 0.666667
vt 0.8125 0.333333
mtllib MeshToExtrude.mtl
usemtl Default
g Default
f 2/1/1 5/2/1 3/3/1 1/4/1
f 3/5/1 8/6/1 7/7/1 1/8/1
f 8/5/1 12/6/1 13/7/1 7/8/1
f 10/5/1 14/6/1 11/7/1 9/8/1
f 14/5/1 15/6/1 16/7/1 11/8/1
f 12/5/1 17/6/1 18/7/1 13/8/1
f 4/9/1 19/10/1 20/11/1 6/12/1
f 19/10/1 3/3/1 5/2/1 20/11/1
f 3/8/1 19/13/1 21/14/1 8/7/1
f 19/13/1 4/5/1 9/6/1 21/14/1
f 8/8/1 21/13/1 22/14/1 12/7/1
f 21/13/1 9/5/1 11/6/1 22/14/1
f 12/8/1 22/13/1 23/14/1 17/7/1
f 22/13/1 11/5/1 16/6/1 23/14/1
f 29/5/1 33/6/1 34/7/1 28/8/1
f 31/5/1 35/6/1 32/7/1 30/8/1
f 35/5/1 36/6/1 37/7/1 32/8/1
f 33/5/1 38/6/1 39/7/1 34/8/1
f 25/9/1 40/10/1 41/11/1 27/12/1
f 40/10/1 24/3/1 26/2/1 41/11/1
f 24/8/1 40/13/1 42/14/1 29/7/1
f 40/13/1 25/5/1 30/6/1 42/14/1
f 29/8/1 42/13/1 43/14/1 33/7/1
f 42/13/1 30/5/1 32/6/1 43/14/1
f 33/8/1 43/13/1 44/14/1 38/7/1
f 43/13/1 32/5/1 37/6/1 44/14/1
f 50/5/1 54/6/1 55/7/1 49/8/1
f 52/5/1 56/6/1 53/7/1 51/8/1
f 56/5/1 57/6/1 58/7/1 53/8/1
f 54/5/1 59/6/1 60/7/1 55/8/1
f 46/9/1 61/10/1 62/11/1 48/12/1
f 61/10/1 45/3/1 47/2/1 62/11/1
f 45/8/1 61/13/1 63/14/1 50/7/1
f 61/13/1 46/5/1 51/6/1 63/14/1
f 50/8/1 63/13/1 64/14/1 54/7/1
f 63/13/1 51/5/1 53/6/1 64/14/1
f 54/8/1 64/13/1 65/14/1 59/7/1
f 64/13/1 53/5/1 58/6/1 65/14/1
f 71/5/1 75/6/1 76/7/1 70/8/1
f 73/5/1 77/6/1 74/7/1 72/8/1
f 77/5/1 78/6/1 79/7/1 74/8/1
f 75/5/1 80/6/1 81/7/1 76/8/1
f 67/9/1 82/10/1 83/11/1 69/12/1
f 82/10/1 66/3/1 68/2/1 83/11/1
f 66/8/1 82/13/1 84/14/1 71/7/1
f 82/13/1 67/5/1 72/6/1 84/14/1
f 71/8/1 84/13/1 85/14/1 75/7/1
f 84/13/1 72/5/1 74/6/1 85/14/1
f 75/8/1 85/13/1 86/14/1 80/7/1
f 85/13/1 74/5/1 79/6/1 86/14/1
f 92/5/1 96/6/1 97/7/1 91/8/1
f 94/5/1 98/6/1 95/7/1 93/8/1
f 98/5/1 99/6/1 100/7/1 95/8/1
f 96/5/1 101/6/1 102/7/1 97/8/1
f 88/9/1 103/10/1 104/11/1 90/12/1
f 103/10/1 87/3/1 89/2/1 104/11/1
f 87/8/1 103/13/1 105/14/1 92/7/1
f 103/13/1 88/5/1 93/6/1 105/14/1
f 92/8/1 105/13/1 106/14/1 96/7/1
f 105/13/1 93/5/1 95/6/1 106/14/1
f 96/8/1 106/13/1 107/14/1 101/7/1
f 106/13/1 95/5/1 100/6/1 107/14/1
f 113/5/1 117/6/1 118/7/1 112/8/1
f 115/5/1 119/6/1 116/7/1 114/8/1
f 119/5/1 120/6/1 121/7/1 116/8/1
f 117/5/1 122/6/1 123/7/1 118/8/1
f 109/9/1 124/10/1 125/11/1 111/12/1
f 124/10/1 108/3/1 110/2/1 125/11/1
f 108/8/1 124/13/1 126/14/1 113/7/1
f 124/13/1 109/5/1 114/6/1 126/14/1
f 113/8/1 126/13/1 127/14/1 117/7/1
f 126/13/1 114/5/1 116/6/1 127/14/1
f 117/8/1 127/13/1 128/14/1 122/7/1
f 127/13/1 116/5/1 121/6/1 128/14/1
f 134/5/1 138/6/1 139/7/1 133/8/1
f 136/5/1 140/6/1 137/7/1 135/8/1
f 140/5/1 141/6/1 142/7/1 137/8/1
f 138/5/1 143/6/1 144/7/1 139/8/1
f 130/9/1 145/10/1 146/11/1 132/12/1
f 145/10/1 129/3/1 131/2/1 146/11/1
f 129/8/1 145/13/1 147/14/1 134/7/1
f 145/13/1 130/5/1 135/6/1 147/14/1
f 134/8/1 147/13/1 148/14/1 138/7/1
f 147/13/1 135/5/1 137/6/1 148/14/1
f 138/8/1 148/13/1 149/14/1 143/7/1
f 148/13/1 137/5/1 142/6/1 149/14/1
f 6/12/1 151/15/1 150/16/1 4/9/1
f 150/5/1 10/6/1 9/7/1 4/8/1
f 153/1/1 26/2/1 24/3/1 152/4/1
f 27/12/1 155/15/1 154/16/1 25/9/1
f 24/5/1 29/6/1 28/7/1 152/8/1
f 154/5/1 31/6/1 30/7/1 25/8/1
f 155/1/1 47/2/1 45/3/1 154/4/1
f 48/12/1 157/15/1 156/16/1 46/9/1
f 45/5/1 50/6/1 49/7/1 154/8/1
f 156/5/1 52/6/1 51/7/1 46/8/1
f 157/1/1 68/2/1 66/3/1 156/4/1
f 69/12/1 159/15/1 158/16/1 67/9/1
f 66/5/1 71/6/1 70/7/1 156/8/1
f 158/5/1 73/6/1 72/7/1 67/8/1
f 159/1/1 89/2/1 87/3/1 158/4/1
f 90/12/1 161/15/1 160/16/1 88/9/1
f 87/5/1 92/6/1 91/7/1 158/8/1
f 160/5/1 94/6/1 93/7/1 88/8/1
f 161/1/1 110/2/1 108/3/1 160/4/1
f 108/5/1 113/6/1 112/7/1 160/8/1
f 151/1/1 131/2/1 129/3/1 150/4/1
f 132/12/1 153/15/1 152/16/1 130/9/1
f 129/5/1 134/6/1 133/7/1 150/8/1
f 152/5/1 136/6/1 135/7/1 130/8/1
f 7/5/1 162/6/1 163/7/1 1/8/1
f 1/5/1 163/6/1 164/7/1 2/8/1
f 13/5/1 165/6/1 162/7/1 7/8/1
f 18/5/1 166/6/1 165/7/1 13/8/1
f 165/5/1 167/6/1 168/7/1 162/8/1
f 162/5/1 168/6/1 169/7/1 163/8/1
f 163/5/1 169/6/1 170/7/1 164/8/1
f 166/5/1 171/6/1 167/7/1 165/8/1
f 169/5/1 172/6/1 173/7/1 170/8/1
f 168/5/1 174/6/1 172/7/1 169/8/1
f 167/5/1 175/6/1 174/7/1 168/8/1
f 171/5/1 176/6/1 175/7/1 167/8/1
f 176/5/1 177/6/1 178/7/1 175/8/1
f 175/5/1 178/6/1 179/7/1 174/8/1
f 174/5/1 179/6/1 180/7/1 172/8/1
f 172/5/1 180/6/1 181/7/1 173/8/1
f 177/5/1 182/6/1 183/7/1 178/8/1
f 178/5/1 183/6/1 184/7/1 179/8/1
f 179/5/1 184/6/1 185/7/1 180/8/1
f 180/5/1 185/6/1 186/7/1 181/8/1
f 188/1/1 187/4/1 189/3/1 191/2/1
f 189/5/1 187/8/1 193/7/1 194/6/1
f 194/5/1 193/8/1 199/7/1 198/6/1
f 196/5/1 195/8/1 197/7/1 200/6/1
f 200/5/1 197/8/1 202/7/1 201/6/1
f 198/5/1 199/8/1 204/7/1 203/6/1
f 190/9/1 192/12/1 206/11/1 205/10/1
f 205/10/1 206/11/1 191/2/1 189/3/1
f 189/8/1 194/7/1 207/14/1 205/13/1
f 205/13/1 207/14/1 195/6/1 190/5/1
f 194/8/1 198/7/1 208/14/1 207/13/1
f 207/13/1 208/14/1 197/6/1 195/5/1
f 198/8/1 203/7/1 209/14/1 208/13/1
f 208/13/1 209/14/1 202/6/1 197/5/1
f 193/5/1 187/8/1 211/7/1 210/6/1
f 187/5/1 188/8/1 212/7/1 211/6/1
f 199/5/1 193/8/1 210/7/1 213/6/1
f 204/5/1 199/8/1 213/7/1 214/6/1
f 213/5/1 210/8/1 216/7/1 215/6/1
f 210/5/1 211/8/1 217/7/1 216/6/1
f 211/5/1 212/8/1 218/7/1 217/6/1
f 214/5/1 213/8/1 215/7/1 219/6/1
f 217/5/1 218/8/1 221/7/1 220/6/1
f 216/5/1 217/8/1 220/7/1 222/6/1
f 215/5/1 216/8/1 222/7/1 223/6/1
f 219/5/1 215/8/1 223/7/1 224/6/1
f 224/5/1 223/8/1 226/7/1 225/6/1
f 223/5/1 222/8/1 227/7/1 226/6/1
f 222/5/1 220/8/1 228/7/1 227/6/1
f 220/5/1 221/8/1 229/7/1 228/6/1
f 225/5/1 226/8/1 231/7/1 230/6/1
f 226/5/1 227/8/1 232/7/1 231/6/1
f 227/5/1 228/8/1 233/7/1 232/6/1
f 228/5/1 229/8/1 234/7/1 233/6/1
f 236/5/1 115/6/1 114/7/1 109/8/1
f 236/5/1 190/8/1 195/7/1 196/6/1
f 111/12/1 235/15/1 236/16/1 109/9/1
f 192/12/1 190/9/1 236/16/1 235/15/1
