<?xml version="1.0"?>
<!DOCTYPE svg PUBLIC "-//W3C//DTD SVG 1.1//EN" "http://www.w3.org/Graphics/SVG/1.1/DTD/svg11.dtd">
<svg width="186.690801497mm" height="164.356852383mm" viewBox="0 0 186.690801497 164.356852383" xmlns="http://www.w3.org/2000/svg" version="1.1">
<g id="Sketch" transform="translate(85.694730,92.526550) scale(1,-1)">
<circle cx="-11.0423305948" cy="-57.4951924873" r="2.0" stroke="#000000" stroke-width="0.35 px" style="stroke-width:0.35;stroke-miterlimit:4;stroke-dasharray:none;fill:none"/>
<circle cx="8.95766940516" cy="-57.4951607309" r="2.0" stroke="#000000" stroke-width="0.35 px" style="stroke-width:0.35;stroke-miterlimit:4;stroke-dasharray:none;fill:none"/>
<circle cx="-43.7998865251" cy="-17.0566419846" r="2.0" stroke="#000000" stroke-width="0.35 px" style="stroke-width:0.35;stroke-miterlimit:4;stroke-dasharray:none;fill:none"/>
<circle cx="-33.356182" cy="0.0" r="2.0" stroke="#000000" stroke-width="0.35 px" style="stroke-width:0.35;stroke-miterlimit:4;stroke-dasharray:none;fill:none"/>
<circle cx="36.933575" cy="0.0" r="2.0" stroke="#000000" stroke-width="0.35 px" style="stroke-width:0.35;stroke-miterlimit:4;stroke-dasharray:none;fill:none"/>
<circle cx="47.9166735297" cy="-16.7144113473" r="2.0" stroke="#000000" stroke-width="0.35 px" style="stroke-width:0.35;stroke-miterlimit:4;stroke-dasharray:none;fill:none"/>
<circle cx="80.0" cy="-60.0" r="2.0" stroke="#000000" stroke-width="0.35 px" style="stroke-width:0.35;stroke-miterlimit:4;stroke-dasharray:none;fill:none"/>
<circle cx="-70.0" cy="-60.0" r="2.0" stroke="#000000" stroke-width="0.35 px" style="stroke-width:0.35;stroke-miterlimit:4;stroke-dasharray:none;fill:none"/>
<circle cx="0.0" cy="70.0" r="2.0" stroke="#000000" stroke-width="0.35 px" style="stroke-width:0.35;stroke-miterlimit:4;stroke-dasharray:none;fill:none"/>
<path id="Sketch_w0009" d="M -10.6265680173 31.0994205626 L -10.6265680173 47.0994205626 " stroke="#000000" stroke-width="0.35 px" style="stroke-width:0.35;stroke-miterlimit:4;stroke-dasharray:none;fill:none;fill-rule: evenodd "/>
<path id="Sketch_w0010" d="M 98.108659744 -70.0 L -79.2112850295 -70.0 A 4.654525 4.654525 0 0 0 -83.3157089821 -63.1504107657 L -1.58144226948 89.6797783523 A 1.925317 1.925317 0 0 0 1.7564197767 89.7802406239 L 99.0093585207 -68.388852141 A 1.057338 1.057338 0 0 0 98.108659744 -70.0 " stroke="#000000" stroke-width="0.35 px" style="stroke-width:0.35;stroke-miterlimit:4;stroke-dasharray:none;fill:none;fill-rule: evenodd "/>
<path id="Sketch_w0011" d="M -10.6265680173 31.3110808013 L 9.37343198271 31.3110808013 L 9.37343198271 47.3110808013 L -10.6265680173 47.3110808013 " stroke="#000000" stroke-width="0.35 px" style="stroke-width:0.35;stroke-miterlimit:4;stroke-dasharray:none;fill:none;fill-rule: evenodd "/>
<path id="Sketch_w0012" d="M 49.114267 -33.0 L 49.250129 -33.0 " stroke="#000000" stroke-width="0.35 px" style="stroke-width:0.35;stroke-miterlimit:4;stroke-dasharray:none;fill:none;fill-rule: evenodd "/>
<path id="Sketch_w0013" d="M 62.2935360779 -39.0940019212 L 52.19811371 -56.3590662771 L 38.411868328 -48.238756045 L 48.5525824844 -30.8965078942 L 62.3221530725 -39.045061497 " stroke="#000000" stroke-width="0.35 px" style="stroke-width:0.35;stroke-miterlimit:4;stroke-dasharray:none;fill:none;fill-rule: evenodd "/>
<path id="Sketch_w0014" d="M -29.2990492975 -48.5172477738 L -38.3587417025 -30.6868811615 " stroke="#000000" stroke-width="0.35 px" style="stroke-width:0.35;stroke-miterlimit:4;stroke-dasharray:none;fill:none;fill-rule: evenodd "/>
<path id="Sketch_w0015" d="M -29.2418357805 -48.6760831374 L -43.4214502224 -56.088136448 L -52.2291864759 -38.1319736595 " stroke="#000000" stroke-width="0.35 px" style="stroke-width:0.35;stroke-miterlimit:4;stroke-dasharray:none;fill:none;fill-rule: evenodd "/>
<path id="Sketch_w0016" d="M -38.0766960518 -30.6772440712 L -52.1728960211 -38.2467319288 " stroke="#000000" stroke-width="0.35 px" style="stroke-width:0.35;stroke-miterlimit:4;stroke-dasharray:none;fill:none;fill-rule: evenodd "/>
<title>Sketch</title>
</g>
</svg>