<?xml version="1.0"?>
<!DOCTYPE svg PUBLIC "-//W3C//DTD SVG 1.1//EN" "http://www.w3.org/Graphics/SVG/1.1/DTD/svg11.dtd">
<svg width="186.690801497mm" height="164.356852383mm" viewBox="0 0 186.690801497 164.356852383" xmlns="http://www.w3.org/2000/svg" version="1.1">
<g id="Sketch" transform="translate(85.694730,92.526550) scale(1,-1)">
<circle cx="-11.0423305948" cy="-57.625238319" r="2.0" stroke="#000000" stroke-width="0.35 px" style="stroke-width:0.35;stroke-miterlimit:4;stroke-dasharray:none;fill:none"/>
<circle cx="8.95766940516" cy="-57.4951585843" r="2.0" stroke="#000000" stroke-width="0.35 px" style="stroke-width:0.35;stroke-miterlimit:4;stroke-dasharray:none;fill:none"/>
<circle cx="-43.7998865251" cy="-17.0566419846" r="2.0" stroke="#000000" stroke-width="0.35 px" style="stroke-width:0.35;stroke-miterlimit:4;stroke-dasharray:none;fill:none"/>
<circle cx="-33.356182" cy="0.0" r="2.0" stroke="#000000" stroke-width="0.35 px" style="stroke-width:0.35;stroke-miterlimit:4;stroke-dasharray:none;fill:none"/>
<circle cx="36.933575" cy="0.0" r="2.0" stroke="#000000" stroke-width="0.35 px" style="stroke-width:0.35;stroke-miterlimit:4;stroke-dasharray:none;fill:none"/>
<circle cx="47.9166735297" cy="-16.7144113473" r="2.0" stroke="#000000" stroke-width="0.35 px" style="stroke-width:0.35;stroke-miterlimit:4;stroke-dasharray:none;fill:none"/>
<circle cx="80.0" cy="-60.0" r="2.0" stroke="#000000" stroke-width="0.35 px" style="stroke-width:0.35;stroke-miterlimit:4;stroke-dasharray:none;fill:none"/>
<circle cx="-70.0" cy="-60.0" r="2.0" stroke="#000000" stroke-width="0.35 px" style="stroke-width:0.35;stroke-miterlimit:4;stroke-dasharray:none;fill:none"/>
<circle cx="0.0" cy="70.0" r="2.0" stroke="#000000" stroke-width="0.35 px" style="stroke-width:0.35;stroke-miterlimit:4;stroke-dasharray:none;fill:none"/>
<path id="Sketch_w0009" d="M 32.3613023353 -45.4234858014 L 42.159078052 -27.9877870484 L 68.3126261815 -42.6844506235 L 58.5148504648 -60.1201493765 L 32.456173 -45.423466 " stroke="#000000" stroke-width="0.35 px" style="stroke-width:0.35;stroke-miterlimit:4;stroke-dasharray:none;fill:none;fill-rule: evenodd "/>
<path id="Sketch_w0010" d="M 10.9192388155 53.8602343539 L 10.9192388155 23.8602343539 L -9.08076118446 23.8602343539 " stroke="#000000" stroke-width="0.35 px" style="stroke-width:0.35;stroke-miterlimit:4;stroke-dasharray:none;fill:none;fill-rule: evenodd "/>
<path id="Sketch_w0011" d="M -58.8937399362 -41.6931261719 L -49.4658024407 -59.3315499841 L -23.0081667223 -45.1896437408 L -32.4361042178 -27.5512199286 L -58.8937399362 -41.6931261719 " stroke="#000000" stroke-width="0.35 px" style="stroke-width:0.35;stroke-miterlimit:4;stroke-dasharray:none;fill:none;fill-rule: evenodd "/>
<path id="Sketch_w0012" d="M -9.36360389693 23.8617101845 L -9.36360389693 53.8617101845 L 10.6363961031 53.8617101845 " stroke="#000000" stroke-width="0.35 px" style="stroke-width:0.35;stroke-miterlimit:4;stroke-dasharray:none;fill:none;fill-rule: evenodd "/>
<path id="Sketch_w0013" d="M 98.108659744 -70.0 L -79.2112850295 -70.0 A 4.654525 4.654525 0 0 0 -83.3157089821 -63.1504107657 L -1.58144226948 89.6797783523 A 1.925317 1.925317 0 0 0 1.7564197767 89.7802406239 L 99.0093585207 -68.388852141 A 1.057338 1.057338 0 0 0 98.108659744 -70.0 " stroke="#000000" stroke-width="0.35 px" style="stroke-width:0.35;stroke-miterlimit:4;stroke-dasharray:none;fill:none;fill-rule: evenodd "/>
<title>Sketch</title>
</g>
</svg>