<?xml version="1.0"?>
<!DOCTYPE svg PUBLIC "-//W3C//DTD SVG 1.1//EN" "http://www.w3.org/Graphics/SVG/1.1/DTD/svg11.dtd">
<svg width="123.42mm" height="25.637157mm" viewBox="0 0 123.42 25.637157" xmlns="http://www.w3.org/2000/svg" version="1.1">
<g id="Sketch002" transform="translate(119.210000,32.927157) scale(1,-1)">
<path id="Sketch002_w0000" d="M -16.0 22.0 L -16.0 8.5 L -21.0 8.5 L -21.0 19.5 L -29.0 19.5 L -29.0 8.5 L -34.0 8.5 L -34.0 19.5 L -42.0 19.5 L -42.0 8.5 L -47.0 8.5 L -47.0 19.5 L -55.0 19.5 L -55.0 8.5 L -60.0 8.5 L -60.0 19.5 L -68.0 19.5 L -68.0 8.5 L -73.0 8.5 L -73.0 19.5 L -81.0 19.5 L -81.0 8.5 L -86.0 8.5 L -86.0 19.5 L -94.0 19.5 L -94.0 8.5 L -99.0 8.5 L -99.0 21.717157 L -118.0 21.717157 L -118.0 31.717157 L 3.0 31.717157 L 3.0 21.717157 L -16.0 21.717157 " stroke="#000000" stroke-width="0.35 px" style="stroke-width:0.35;stroke-miterlimit:4;stroke-dasharray:none;fill:none;fill-rule: evenodd "/>
<circle cx="-108.0" cy="26.717157" r="1.5" stroke="#000000" stroke-width="0.35 px" style="stroke-width:0.35;stroke-miterlimit:4;stroke-dasharray:none;fill:none"/>
<circle cx="-7.0" cy="26.717157" r="1.5" stroke="#000000" stroke-width="0.35 px" style="stroke-width:0.35;stroke-miterlimit:4;stroke-dasharray:none;fill:none"/>
<circle cx="-57.791939" cy="26.5" r="1.5" stroke="#000000" stroke-width="0.35 px" style="stroke-width:0.35;stroke-miterlimit:4;stroke-dasharray:none;fill:none"/>
<title>Sketch002</title>
</g>
</svg>