<?xml version="1.0"?>
<!DOCTYPE svg PUBLIC "-//W3C//DTD SVG 1.1//EN" "http://www.w3.org/Graphics/SVG/1.1/DTD/svg11.dtd">
<svg width="131.23860906mm" height="44.9251532607mm" viewBox="0 0 131.23860906 44.9251532607" xmlns="http://www.w3.org/2000/svg" version="1.1">
<g id="Sketch011" transform="translate(123.038148,33.100344) scale(1,-1)">
<circle cx="-105.669693987" cy="-5.41072832364" r="1.5" stroke="#000000" stroke-width="0.35 px" style="stroke-width:0.35;stroke-miterlimit:4;stroke-dasharray:none;fill:none"/>
<circle cx="-56.9976670827" cy="-5.0919861104" r="1.5" stroke="#000000" stroke-width="0.35 px" style="stroke-width:0.35;stroke-miterlimit:4;stroke-dasharray:none;fill:none"/>
<circle cx="-11.4388820865" cy="-4.88032257491" r="1.5" stroke="#000000" stroke-width="0.35 px" style="stroke-width:0.35;stroke-miterlimit:4;stroke-dasharray:none;fill:none"/>
<path id="Sketch011_w0003" d="M -112.225909313 26.7711841909 L -112.225909313 31.7711841909 L -121.751495 31.7711841909 L -121.751495 -10.538156 L 6.913808 -10.538156 L 6.913808 31.770258 L -3.00835084452 31.7320180718 L -3.00835084452 26.7320180718 A 4.0 4.0 0 0 0 -11.0078058069 26.6659877484 L -11.0078058069 31.6659877484 L -53.8035456769 31.6659877484 L -53.8035456769 26.6659877484 A 4.0 4.0 0 1 0 -61.800817708 26.8136912007 L -61.800817708 31.8136912007 L -103.826124419 31.8136912007 L -103.826124419 26.8136912007 A 4.2 4.2 0 0 0 -112.225909313 26.7711841909 " stroke="#000000" stroke-width="0.35 px" style="stroke-width:0.35;stroke-miterlimit:4;stroke-dasharray:none;fill:none;fill-rule: evenodd "/>
<title>Sketch011</title>
</g>
</svg>