<?xml version="1.0"?>
<!DOCTYPE svg PUBLIC "-//W3C//DTD SVG 1.1//EN" "http://www.w3.org/Graphics/SVG/1.1/DTD/svg11.dtd">
<svg width="131.23860906mm" height="37.96426406mm" viewBox="0 0 131.23860906 37.96426406" xmlns="http://www.w3.org/2000/svg" version="1.1">
<g id="Sketch006" transform="translate(123.038148,26.139455) scale(1,-1)">
<path id="Sketch006_w0000" d="M -114.929146 21.761423 L -114.929146 19.842634 L -95.208275 0.0 L -91.4106 0.0 L -91.4106 16.5 L -88.9106 16.5 L -88.9106 0.0 L -78.4106 0.0 L -78.4106 16.5 L -75.9106 16.5 L -75.9106 0.0 L -65.4106 0.0 L -65.4106 16.5 L -62.9106 16.5 L -62.9106 0.0 L -52.4106 0.0 L -52.4106 16.5 L -49.9106 16.5 L -49.9106 0.0 L -39.4106 0.0 L -39.4106 16.5 L -36.9106 16.5 L -36.9106 0.0 L -26.4106 0.0 L -26.4106 16.5 L -23.9106 16.5 L -23.9106 0.0 L -14.0 0.0 L -14.0 7.0 L -10.0 7.0 L -10.0 0.0 L 0.0 0.0 L 0.0 21.761427 L 3.076246 21.761427 L 3.076246 24.6396 L 6.913808 24.7462 L 6.913808 -10.538156 L -121.751495 -10.538156 L -121.751495 24.852802 L -118.020523 24.852802 L -118.020523 21.761423 L -114.929146 21.761423 " stroke="#000000" stroke-width="0.35 px" style="stroke-width:0.35;stroke-miterlimit:4;stroke-dasharray:none;fill:none;fill-rule: evenodd "/>
<circle cx="-105.669693987" cy="-5.41072832364" r="1.5" stroke="#000000" stroke-width="0.35 px" style="stroke-width:0.35;stroke-miterlimit:4;stroke-dasharray:none;fill:none"/>
<circle cx="-56.9976670827" cy="-5.0919861104" r="1.5" stroke="#000000" stroke-width="0.35 px" style="stroke-width:0.35;stroke-miterlimit:4;stroke-dasharray:none;fill:none"/>
<circle cx="-11.4388820865" cy="-4.88032257491" r="1.5" stroke="#000000" stroke-width="0.35 px" style="stroke-width:0.35;stroke-miterlimit:4;stroke-dasharray:none;fill:none"/>
<title>Sketch006</title>
</g>
</svg>